<svg width="86" height="45" viewBox="0 0 86 45" fill="none" xmlns="http://www.w3.org/2000/svg">
<g clip-path="url(#clip0_33_162)">
<path d="M31.7756 19.0231C32.0983 16.7169 32.9255 14.7541 34.577 13.21C36.3808 11.5237 39.0724 11.0546 41.1742 12.0539C42.24 12.5607 42.9953 13.3715 43.3587 14.5102C43.5969 15.2565 43.3597 15.8803 42.6385 16.2062C42.0109 16.4898 41.4006 16.4735 40.9227 15.848C39.6544 14.1882 37.9656 13.9685 36.5195 15.5059C35.7635 16.3096 35.1955 17.4251 34.8791 18.502C34.0913 21.1831 34.3733 23.9658 34.4164 26.7225C34.4717 30.264 34.4343 33.8083 33.4634 37.2527C32.294 41.4016 29.8317 44.1969 25.4765 44.9228C22.631 45.3971 19.922 43.6338 19.5205 41.0371C19.4552 40.6146 19.4477 40.0142 19.6861 39.753C20.0057 39.4028 20.6412 39.0683 21.0486 39.1585C21.4998 39.2584 22.0482 39.7749 22.2023 40.2324C22.726 41.7869 23.3597 42.2984 24.9461 42.0317C27.5315 41.5971 29.4263 40.2712 30.3423 37.6661C31.182 35.2784 31.4457 32.8023 31.502 30.2976C31.5764 26.9879 31.5894 23.6769 31.6398 20.3666C31.6462 19.9465 31.7193 19.5274 31.7756 19.0231Z" fill="#F7F7F9"/>
<path d="M15.798 15.1229C18.7041 13.4291 21.6106 11.7361 24.5159 10.0409C25.4292 9.50802 26.3314 8.95475 27.2554 8.44182C27.5227 8.29342 27.848 8.25284 28.1466 8.16284C28.2086 8.27005 28.2706 8.37727 28.3326 8.48448C28.0544 8.72595 27.8042 9.01595 27.4936 9.20147C23.9696 11.3065 20.4358 13.3945 16.9067 15.4907C16.6192 15.6615 16.3472 15.8594 16.0941 16.1528C18.9905 16.2856 21.8655 16.2426 24.7359 16.2818C24.7428 16.4633 24.7498 16.6448 24.7568 16.8263C24.39 16.8992 24.0237 17.0319 23.6564 17.0351C21.4201 17.0548 19.1836 17.045 16.9472 17.045C16.6367 17.045 16.3262 17.045 16.0156 17.045C15.9955 17.1027 15.9754 17.1604 15.9553 17.2181C16.2873 17.4331 16.6117 17.6616 16.9526 17.8608C19.1385 19.1387 21.3281 20.41 23.516 21.6843C23.7097 21.7971 23.9562 21.8742 24.0768 22.0428C24.2025 22.2188 24.2054 22.4855 24.2621 22.7125C24.0557 22.7114 23.8099 22.7847 23.6495 22.6968C22.8346 22.2502 22.0435 21.7587 21.2409 21.2886C19.4707 20.2518 17.6986 19.2185 15.8096 18.134C15.6677 18.182 15.6434 18.2797 15.6192 18.3774C17.5863 21.8695 19.5591 25.3583 21.5114 28.8589C21.6997 29.1965 21.7613 29.6071 21.8818 29.9839C21.7284 30.0532 21.5751 30.1226 21.4218 30.192C19.0973 26.3723 17.0015 22.4087 14.5331 18.5711C14.5181 18.8953 14.4911 19.2195 14.4899 19.5438C14.473 24.2876 14.4659 29.0316 14.4375 33.7754C14.4338 34.3862 14.324 34.9964 14.2633 35.607C14.1171 35.6119 13.9708 35.6167 13.8246 35.6216C13.7541 35.2294 13.6214 34.837 13.6226 34.445C13.6379 29.5715 13.6727 24.698 13.702 19.8245C13.7041 19.4717 13.7023 19.1189 13.7023 18.766C13.6196 18.7299 13.537 18.6937 13.4543 18.6576C12.0208 21.1866 10.5874 23.7157 9.15392 26.2447C9.00583 26.1803 8.85775 26.1159 8.70967 26.0515C8.7943 25.7026 8.80936 25.3145 8.97482 25.0111C10.0746 22.9947 11.2078 20.9971 12.3267 18.9914C12.476 18.7239 12.6063 18.4454 12.8778 17.9114C12.3529 18.1631 12.0746 18.2775 11.814 18.4244C8.87996 20.0775 5.94881 21.7358 3.01642 23.3918C2.82108 23.5021 2.63165 23.6487 2.4213 23.6975C2.26769 23.7332 1.98489 23.6845 1.93838 23.5861C1.87592 23.4539 1.92903 23.1832 2.03445 23.0699C2.20354 22.8883 2.45173 22.7789 2.67423 22.6532C5.57739 21.0121 8.48215 19.374 11.3857 17.7337C11.6542 17.582 11.9172 17.4203 12.1525 17.1024C10.9341 17.1024 9.71381 17.1442 8.49768 17.0903C7.32983 17.0385 6.11815 17.3399 4.99023 16.8792C4.97615 16.7534 4.96207 16.6275 4.94799 16.5017C5.30138 16.4233 5.6541 16.2809 6.00828 16.277C8.01445 16.2551 10.021 16.2664 12.1203 16.0431C11.8536 15.8646 11.595 15.6718 11.3189 15.5097C7.80517 13.4463 4.28894 11.3873 0.773087 9.32758C0.634781 9.24656 0.452126 9.20223 0.363708 9.08397C0.211869 8.88088 0.118129 8.6329 0 8.40376C0.257703 8.40464 0.566937 8.31044 0.765009 8.42135C2.44369 9.36139 4.10446 10.3347 5.76602 11.3061C7.81603 12.5046 9.86088 13.7122 11.9103 14.9117C12.124 15.0368 12.3534 15.1344 12.7941 15.3533C12.6031 14.9126 12.5172 14.6609 12.3911 14.4322C11.5472 12.9026 10.6816 11.3852 9.85889 9.84407C9.73223 9.60682 9.78971 9.26799 9.76202 8.97613C10.0227 9.1435 10.385 9.24856 10.5273 9.48846C11.3851 10.9343 12.1908 12.4119 13.0184 13.8764C13.1553 14.1187 13.3137 14.3485 13.6314 14.8527C13.6656 14.2411 13.7006 13.9135 13.6998 13.5859C13.6896 9.45925 13.6689 5.33257 13.6687 1.20589C13.6687 0.804558 13.7878 0.403225 13.8516 0.00189331C13.9968 0.00126227 14.1421 0.000631047 14.2874 0C14.3542 0.371275 14.478 0.742357 14.4792 1.11386C14.493 5.306 14.488 9.49821 14.488 13.6904C14.4881 14.0296 14.488 14.3688 14.488 14.708C14.5625 14.7276 14.6369 14.7473 14.7113 14.7669C14.9763 14.3066 15.2447 13.8483 15.5057 13.3857C16.7134 11.2452 17.908 9.09693 19.1398 6.97094C19.286 6.71854 19.6318 6.58559 19.885 6.39726C19.8625 6.70921 19.9378 7.07627 19.8024 7.3246C18.44 9.82301 17.043 12.302 15.5981 14.8951C15.6263 15.0435 15.7122 15.0832 15.798 15.1229Z" fill="#E7BD08"/>
<path d="M69.0371 20.4211C71.6097 20.2036 73.7445 23.0469 72.9352 26.3996C72.4597 28.3695 71.4097 29.9545 69.4897 31.0222C69.9206 31.8191 70.349 32.5954 70.7619 33.3802C71.093 34.0096 71.4253 34.6399 71.721 35.2868C72.1323 36.1867 71.9287 36.8294 71.1404 37.2529C70.3772 37.6629 69.6499 37.4598 69.1919 36.6289C68.4751 35.3283 67.7409 34.0306 67.1361 32.6754C66.6851 31.6649 66.108 31.2658 64.9651 31.8171C64.7803 33.3136 64.6349 34.926 64.3554 36.5141C64.2599 37.0566 63.9343 37.687 63.5138 37.9973C63.2071 38.2236 62.4315 38.1689 62.1222 37.9153C61.7812 37.6356 61.5428 36.9658 61.5895 36.5001C61.9259 33.1426 62.3472 29.794 62.7391 26.4422C62.9124 24.9597 63.0982 23.4783 63.2418 21.9928C63.3132 21.255 63.6177 20.9173 64.384 20.8695C65.9118 20.7741 67.4339 20.5828 69.0371 20.4211ZM68.431 28.4324C69.4872 27.8596 69.8974 26.8292 70.1703 25.7526C70.5944 24.0796 69.8462 23.2095 68.1832 23.3497C65.9233 23.5403 65.9125 23.539 65.6335 25.8073C65.5136 26.7818 65.4488 27.7634 65.3538 28.7989C66.4399 28.676 67.3594 28.5719 68.431 28.4324Z" fill="#F7F8FA"/>
<path d="M50.0145 32.8773C51.4098 29.5579 52.7784 26.308 54.1485 23.0588C54.2615 22.7909 54.3167 22.4367 54.5176 22.2808C54.942 21.9513 55.4606 21.4981 55.9111 21.5297C56.2863 21.556 56.8227 22.1475 56.9356 22.583C57.3975 24.3658 57.7284 26.1839 58.1003 27.9906C58.6682 30.75 59.2415 33.5084 59.7835 36.2731C59.8746 36.7377 60.0017 37.3555 59.7871 37.6815C59.5109 38.1013 58.9159 38.5061 58.4412 38.5274C58.037 38.5456 57.4723 38.0984 57.2269 37.6994C56.9421 37.2362 56.9283 36.6009 56.7788 35.9633C55.1688 36.1219 53.5845 36.2609 52.0065 36.4534C51.7915 36.4796 51.5232 36.7334 51.4252 36.9499C51.0665 37.743 50.7528 38.5586 50.4533 39.3775C50.1057 40.328 49.3611 40.7589 48.5257 40.4543C47.7315 40.1647 47.4535 39.5239 47.8154 38.5474C48.5112 36.6697 49.2608 34.8126 50.0145 32.8773ZM54.4349 33.3595C54.9984 33.3025 55.562 33.2455 56.2717 33.1737C55.91 31.4408 55.5685 29.805 55.227 28.1692C55.1633 28.1699 55.0995 28.1706 55.0357 28.1714C54.324 29.9091 53.6124 31.6469 52.8469 33.516C53.4489 33.4572 53.858 33.4172 54.4349 33.3595Z" fill="#F9F9FB"/>
<path d="M74.1731 35.0207C74.5257 31.9673 74.8818 29.0036 75.2296 26.0388C75.4112 24.4912 75.5719 22.9411 75.7571 21.3939C75.7992 21.0428 75.8399 20.6663 75.9935 20.3596C76.3024 19.7425 76.846 19.5103 77.5212 19.6379C78.2072 19.7676 78.6461 20.1813 78.6076 20.8997C78.54 22.159 78.3947 23.414 78.2637 24.8741C78.8614 24.3033 79.3623 23.8377 79.8493 23.3574C81.065 22.1586 82.2599 20.9376 83.4915 19.756C84.2866 18.9931 85.0883 18.9748 85.6698 19.6317C86.2079 20.2395 86.0803 20.9696 85.3457 21.7614C83.8138 23.4126 82.2975 25.0787 80.6643 26.8591C81.6843 28.6095 82.855 30.6157 84.0222 32.6239C84.2333 32.9872 84.4504 33.3492 84.629 33.7292C85.0228 34.5673 84.7955 35.3033 84.041 35.7144C83.3081 36.1136 82.539 35.8797 82.1051 35.0584C81.1979 33.3414 80.3243 31.6061 79.4343 29.8796C79.2445 29.5114 79.0438 29.1489 78.8345 28.7585C77.9409 29.2475 77.5677 29.941 77.4865 30.8856C77.3615 32.3403 77.1829 33.7918 76.9793 35.2377C76.8329 36.2775 76.3609 36.6893 75.4962 36.6608C74.6339 36.6323 74.2694 36.2051 74.1731 35.0207Z" fill="#F8F9FA"/>
<path d="M45.1635 34.0608C43.5118 34.296 41.9341 34.511 40.2577 34.7394C40.0883 36.1204 39.9286 37.5277 39.7396 38.9308C39.5893 40.0462 39.0629 40.5229 38.1419 40.4343C37.262 40.3497 36.8691 39.7393 37.002 38.5616C37.5149 34.0158 38.0429 29.4718 38.5652 24.9272C38.6785 23.9409 39.2265 23.4315 40.1965 23.3427C41.6282 23.2117 43.0574 23.0531 44.4884 22.9142C47.4478 22.6271 49.3209 24.3172 49.4044 27.3442C49.4793 30.0567 47.6773 32.9525 45.1635 34.0608ZM42.1794 25.9852C41.8742 26.0408 41.5689 26.0965 41.2313 26.158C41.0238 28.0368 40.8224 29.8599 40.6056 31.8224C41.5629 31.7292 42.3803 31.659 43.1956 31.5683C45.241 31.3407 46.77 29.4019 46.5793 27.2891C46.476 26.1438 45.882 25.6312 44.7315 25.7235C43.9356 25.7874 43.1421 25.8806 42.1794 25.9852Z" fill="#F9F9FB"/>
</g>
<defs>
<clipPath id="clip0_33_162">
<rect width="86" height="45" fill="white"/>
</clipPath>
</defs>
</svg>
